<?xml version="1.0" encoding="UTF-8"?>
<svg width="212px" height="56px" viewBox="0 0 212 56" version="1.1" xmlns="http://www.w3.org/2000/svg" xmlns:xlink="http://www.w3.org/1999/xlink">
    <!-- Generator: Sketch 55.2 (78181) - https://sketchapp.com -->
    <title>🧬 Logos/MH/No baseline@3x</title>
    <desc>Created with Sketch.</desc>
    <defs>
        <path d="M95.8064568,7.59751564 C97.4438911,7.59751564 98.763735,8.14165278 99.7686878,9.23038014 C100.773191,10.3191075 101.275217,11.732233 101.275217,13.4697567 L101.275217,24.2238277 L96.9850496,24.2238277 L96.9850496,14.0963526 C96.9850496,13.1725428 96.7277385,12.430414 96.2144659,11.8695133 C95.701643,11.3086125 95.0088824,11.0286152 94.1348344,11.0286152 C93.2841783,11.0286152 92.5954663,11.3086125 92.0713974,11.8695133 C91.5473284,12.430414 91.2859688,13.1725428 91.2859688,14.0963526 L91.2859688,24.2238277 L86.9944516,24.2238277 L86.9944516,14.0963526 C86.9944516,13.1725428 86.73849,12.430414 86.2252173,11.8695133 C85.7123945,11.3086125 85.0304302,11.0286152 84.1779747,11.0286152 C83.3043766,11.0286152 82.6062178,11.3086125 82.0821489,11.8695133 C81.5580799,12.430414 81.2953707,13.1725428 81.2953707,14.0963526 L81.2953707,24.2238277 L77.0380417,24.2238277 L77.0380417,7.92780371 L81.2953707,7.92780371 L81.2953707,10.5334096 C81.7326196,9.61005286 82.3651011,8.89012453 83.1955142,8.37271851 C84.0259273,7.85621864 84.9746494,7.59751564 86.0457294,7.59751564 C87.1375021,7.59751564 88.0970206,7.87796601 88.9274337,8.43886674 C89.7578467,8.99976748 90.3687357,9.76409668 90.7618998,10.7314013 C91.1991487,9.78629711 91.8644689,9.02740475 92.7605592,8.45563034 C93.6544004,7.88385592 94.6701494,7.59751564 95.8064568,7.59751564 Z M113.295469,20.7929547 C113.75431,20.7929547 114.228896,20.7163858 114.720127,20.562342 C115.211807,20.4082982 115.686393,20.1228641 116.145234,19.7046804 C116.604076,19.2869498 116.964851,18.7536863 117.226211,18.1044369 C117.48892,17.4556406 117.619375,16.7796601 117.619375,16.0755892 C117.619375,14.7562492 117.220813,13.6344477 116.423238,12.7110909 C115.627013,11.786828 114.584274,11.3256026 113.295469,11.3256026 C112.007564,11.3256026 110.959876,11.786828 110.151055,12.7110909 C109.344034,13.6344477 108.939624,14.7562492 108.939624,16.0755892 C108.939624,17.3949292 109.344034,18.5117469 110.151055,19.42423 C110.959876,20.3367131 112.007564,20.7929547 113.295469,20.7929547 Z M117.619375,7.92757718 L121.909543,7.92757718 L121.909543,24.2240543 L117.619375,24.2240543 L117.619375,21.5849211 C116.964851,22.508731 116.139836,23.2286593 115.14613,23.7456123 C114.152423,24.2621121 113.077744,24.5208151 111.920294,24.5208151 C110.892849,24.5208151 109.922534,24.3114968 109.004851,23.8937662 C108.087618,23.4764887 107.296792,22.8879506 106.630122,22.1290583 C105.964352,21.3701659 105.451529,20.4685565 105.090754,19.42423 C104.731328,18.3799035 104.550491,17.2630858 104.550491,16.0755892 C104.550491,14.8880925 104.758319,13.7060328 105.173525,12.5294098 C105.587382,11.3532399 106.205019,10.3741555 107.023286,9.59306273 C107.842453,8.81287608 108.671517,8.28504946 109.512726,8.01003593 C110.352586,7.73547547 111.155558,7.5972891 111.920294,7.5972891 C113.077744,7.5972891 114.152423,7.86142895 115.14613,8.38925557 C116.139836,8.91708219 116.964851,9.63202675 117.619375,10.5336362 L117.619375,7.92757718 Z M126.266692,24.2242355 L126.266692,1.32969908 L130.524021,1.32969908 L130.524021,24.2242355 L126.266692,24.2242355 Z M142.74009,20.7929547 C143.198932,20.7929547 143.673968,20.7163858 144.165198,20.562342 C144.656878,20.4082982 145.131464,20.1228641 145.590305,19.7046804 C146.048697,19.2869498 146.409472,18.7536863 146.670832,18.1044369 C146.933541,17.4556406 147.064446,16.7796601 147.064446,16.0755892 C147.064446,14.7562492 146.665884,13.6344477 145.86786,12.7110909 C145.072085,11.786828 144.028895,11.3256026 142.74009,11.3256026 C141.452635,11.3256026 140.404497,11.786828 139.596127,12.7110909 C138.789105,13.6344477 138.384245,14.7562492 138.384245,16.0755892 C138.384245,17.3949292 138.789105,18.5117469 139.596127,19.42423 C140.404497,20.3367131 141.452635,20.7929547 142.74009,20.7929547 Z M147.064446,7.92757718 L151.354614,7.92757718 L151.354614,24.2240543 L147.064446,24.2240543 L147.064446,21.5849211 C146.409472,22.508731 145.584907,23.2286593 144.591201,23.7456123 C143.597494,24.2621121 142.522365,24.5208151 141.365365,24.5208151 C140.33792,24.5208151 139.367606,24.3114968 138.449923,23.8937662 C137.53269,23.4764887 136.741863,22.8879506 136.075193,22.1290583 C135.408973,21.3701659 134.896151,20.4685565 134.535375,19.42423 C134.175949,18.3799035 133.995112,17.2630858 133.995112,16.0755892 C133.995112,14.8880925 134.20294,13.7060328 134.618147,12.5294098 C135.032004,11.3532399 135.65009,10.3741555 136.468357,9.59306273 C137.287524,8.81287608 138.116588,8.28504946 138.957797,8.01003593 C139.797657,7.73547547 140.600629,7.5972891 141.365365,7.5972891 C142.522365,7.5972891 143.597494,7.86142895 144.591201,8.38925557 C145.584907,8.91708219 146.409472,9.63202675 147.064446,10.5336362 L147.064446,7.92757718 Z M171.039002,7.92757718 L164.226556,15.680059 L171.039002,24.2240543 L165.996245,24.2240543 L159.969227,16.4054242 L159.969227,24.2240543 L155.711898,24.2240543 L155.711898,1.32951786 L159.969227,1.32951786 L159.969227,15.0199359 L165.996245,7.92757718 L171.039002,7.92757718 Z M180.964148,11.3253761 C179.675343,11.3253761 178.632604,11.7870545 177.836379,12.7108644 C177.038804,13.6346742 176.640242,14.7564757 176.640242,16.0758157 C176.640242,16.7798866 176.772046,17.4558671 177.033406,18.1046635 C177.296115,18.7534598 177.655541,19.2871763 178.113933,19.7044538 C178.573224,20.1226375 179.04781,20.4085247 179.53904,20.5621155 C180.030721,20.7161593 180.505307,20.7927281 180.964148,20.7927281 C181.575487,20.7927281 182.213816,20.6504641 182.880936,20.3641239 C183.546256,20.0786897 184.119358,19.5395363 184.599792,18.7480229 C185.080226,17.9560565 185.319993,17.0648677 185.319993,16.0758157 C185.319993,14.6903275 184.911534,13.5522155 184.091917,12.6610267 C183.27275,11.7702909 182.230011,11.3253761 180.964148,11.3253761 Z M180.996987,7.59751564 C182.547601,7.59751564 183.988903,7.93867739 185.319993,8.62009477 C186.652433,9.30241828 187.716765,10.2973601 188.514339,11.6058265 C189.310564,12.9142928 189.709126,14.4044403 189.709126,16.0758157 C189.709126,17.2633124 189.490052,18.379677 189.054603,19.4240035 C188.617804,20.468783 188.010963,21.3703925 187.236331,22.1292848 C186.460799,22.8881772 185.533669,23.4762621 184.452693,23.8939927 C183.372166,24.3117233 182.219214,24.5205886 180.996987,24.5205886 C179.773409,24.5205886 178.621807,24.3117233 177.541281,23.8939927 C176.460304,23.4762621 175.526427,22.8881772 174.741448,22.1292848 C173.95467,21.3703925 173.343781,20.468783 172.906532,19.4240035 C172.469733,18.379677 172.252008,17.2633124 172.252008,16.0758157 C172.252008,14.8883191 172.496724,13.7062593 172.988404,12.5291833 C173.479184,11.3530134 174.211531,10.3743821 175.183645,9.59328926 C176.15441,8.81310262 177.13687,8.28527599 178.130577,8.00980939 C179.123834,7.73524894 180.079304,7.59751564 180.996987,7.59751564 Z M209.689153,4.62863813 C209.143491,4.62863813 208.701294,4.78268195 208.362111,5.0907696 C208.023378,5.39885724 207.854237,5.80571415 207.854237,6.31088727 L207.854237,7.92744126 L211,7.92744126 L211,11.4903842 L207.854237,11.4903842 L207.854237,24.2239183 L203.564069,24.2239183 L203.564069,11.4903842 L201.598698,11.4903842 L198.454285,11.4903842 L198.454285,24.2239183 L194.197406,24.2239183 L194.197406,11.4903842 L191.936037,11.4903842 L191.936037,7.92744126 L194.197406,7.92744126 L194.197406,6.31088727 C194.197406,4.77180827 194.76466,3.50185289 195.900067,2.50056805 C197.035025,1.50018935 198.487573,1 200.256362,1 C200.780431,1 201.227127,1.0439478 201.598698,1.13184339 L201.598698,4.85970386 C201.096222,4.70611311 200.659873,4.62863813 200.289201,4.62863813 C199.765132,4.62863813 199.326983,4.78268195 198.978354,5.0907696 C198.628825,5.39885724 198.454285,5.80571415 198.454285,6.31088727 L198.454285,7.92744126 L201.598698,7.92744126 L203.564069,7.92744126 L203.564069,6.31088727 C203.564069,4.77180827 204.131773,3.50185289 205.266731,2.50056805 C206.402139,1.50018935 207.854237,1 209.623476,1 C210.126402,1 210.584793,1.0439478 211,1.13184339 L211,4.85970386 C210.496174,4.70611311 210.060725,4.62863813 209.689153,4.62863813 Z M86.3399277,37.0767005 C88.1096162,37.0767005 89.554517,37.6761122 90.6800281,38.8744825 C91.8046395,40.0733059 92.3664954,41.6182748 92.3664954,43.5093892 L92.3664954,53.7030126 L88.0763278,53.7030126 L88.0763278,44.1364382 C88.0763278,43.6303589 87.9719638,43.0921117 87.7650353,42.5198842 C87.5567573,41.9481098 87.1806872,41.4701209 86.6350258,41.0850113 C86.0893643,40.7003548 85.4550834,40.5078001 84.7353321,40.5078001 C83.9917391,40.5078001 83.3372152,40.7003548 82.7695114,41.0850113 C82.2022574,41.4701209 81.8140415,41.9481098 81.607113,42.5198842 C81.3992848,43.0921117 81.2953707,43.6303589 81.2953707,44.1364382 L81.2953707,53.7030126 L77.0380417,53.7030126 L77.0380417,30.8089292 L81.2953707,30.8089292 L81.2953707,39.9464463 C81.8194396,39.0452899 82.5247959,38.3416721 83.4078408,37.8355928 C84.2926851,37.3299667 85.2697475,37.0767005 86.3399277,37.0767005 Z M112.018405,37.406762 L112.018405,46.9402623 C112.018405,49.007621 111.30945,50.7011969 109.889741,52.0205369 C108.470031,53.3398769 106.647711,54 104.419181,54 C103.327858,54 102.306711,53.8291926 101.357089,53.4884839 C100.407017,53.1477752 99.58875,52.6589126 98.9000379,52.0205369 C98.2131253,51.3830673 97.6832084,50.6300649 97.3120866,49.7606234 C96.9400651,48.8925412 96.7547292,47.9519677 96.7547292,46.9402623 L96.7547292,37.406762 L101.013858,37.406762 L101.013858,46.9402623 C101.013858,47.4245942 101.115972,47.9465309 101.32425,48.5074316 C101.531179,49.0683324 101.908149,49.5359007 102.45381,49.9096835 C102.999921,50.2834663 103.644998,50.4701311 104.386792,50.4701311 C104.867226,50.4701311 105.369703,50.3604882 105.893771,50.1398431 C106.41784,49.9210102 106.859588,49.525027 107.220813,48.9527995 C107.580239,48.3810251 107.761076,47.7104814 107.761076,46.9402623 L107.761076,37.406762 L112.018405,37.406762 Z M135.470512,37.0767005 C137.107946,37.0767005 138.42824,37.6208376 139.432743,38.709565 C140.437246,39.7982924 140.939272,41.2114179 140.939272,42.9489416 L140.939272,53.7030126 L136.649105,53.7030126 L136.649105,43.5755375 C136.649105,42.6517276 136.392244,41.9095988 135.878521,41.3486981 C135.365698,40.7877974 134.672938,40.5078001 133.79889,40.5078001 C132.948683,40.5078001 132.259522,40.7877974 131.735453,41.3486981 C131.211384,41.9095988 130.950024,42.6517276 130.950024,43.5755375 L130.950024,53.7030126 L126.658507,53.7030126 L126.658507,43.5755375 C126.658507,42.6517276 126.402995,41.9095988 125.889722,41.3486981 C125.3769,40.7877974 124.694485,40.5078001 123.84248,40.5078001 C122.968882,40.5078001 122.270273,40.7877974 121.746204,41.3486981 C121.222135,41.9095988 120.959426,42.6517276 120.959426,43.5755375 L120.959426,53.7030126 L116.702097,53.7030126 L116.702097,37.4069886 L120.959426,37.4069886 L120.959426,40.0125945 C121.396675,39.0892377 122.029606,38.3693094 122.860019,37.8519034 C123.690432,37.3354035 124.638705,37.0767005 125.710234,37.0767005 C126.801557,37.0767005 127.761076,37.3571509 128.591489,37.9180516 C129.421902,38.4789523 130.032791,39.2432815 130.425955,40.2105861 C130.863204,39.265482 131.528524,38.5065896 132.424614,37.9348152 C133.318456,37.3630408 134.334205,37.0767005 135.470512,37.0767005 Z M153.452014,50.2721395 C153.910856,50.2721395 154.385891,50.1955707 154.877122,50.0415269 C155.368802,49.887483 155.843388,49.6020489 156.30088,49.1838652 C156.759721,48.7661346 157.120047,48.2328712 157.382756,47.5836218 C157.644116,46.9348254 157.77502,46.2588449 157.77502,45.554774 C157.77502,44.235434 157.376458,43.1136325 156.579783,42.1902757 C155.782659,41.2664659 154.739469,40.8047875 153.452014,40.8047875 C152.163209,40.8047875 151.115072,41.2664659 150.30805,42.1902757 C149.49968,43.1136325 149.09482,44.235434 149.09482,45.554774 C149.09482,46.8741141 149.49968,47.9909318 150.30805,48.9034149 C151.115072,49.815898 152.163209,50.2721395 153.452014,50.2721395 Z M157.77502,37.406762 L162.066538,37.406762 L162.066538,53.7032391 L157.77502,53.7032391 L157.77502,51.064106 C157.120047,51.9879159 156.295482,52.7078442 155.303124,53.2247971 C154.308068,53.741297 153.23294,54 152.07594,54 C151.049844,54 150.07773,53.7906816 149.161846,53.372951 C148.244613,52.9556735 147.452437,52.3671355 146.787117,51.6082431 C146.119548,50.8493508 145.608074,49.9477414 145.247299,48.9034149 C144.886524,47.8590884 144.707036,46.7422707 144.707036,45.554774 C144.707036,44.3672774 144.913964,43.1852176 145.328721,42.0085947 C145.743927,40.8324248 146.360664,39.8533404 147.180281,39.0722476 C147.998099,38.2920609 148.828512,37.7642343 149.668371,37.4892208 C150.509581,37.2146603 151.311204,37.076474 152.07594,37.076474 C153.23294,37.076474 154.308068,37.3406138 155.303124,37.8684404 C156.295482,38.396267 157.120047,39.1112116 157.77502,40.012821 L157.77502,37.406762 Z M176.31325,37.0767005 C176.946181,37.0767005 177.606553,37.1813597 178.294815,37.3897719 C178.982628,37.5995433 179.653796,37.9950735 180.309669,38.5777216 C180.964193,39.1608228 181.455873,39.8975147 181.78381,40.7877974 C182.110397,41.6789862 182.27504,42.5860324 182.27504,43.5093892 L182.27504,53.7030126 L178.015912,53.7030126 L178.015912,44.1364382 C178.015912,43.6303589 177.912897,43.0921117 177.705969,42.5198842 C177.497691,41.9481098 177.120721,41.4701209 176.57461,41.0850113 C176.028948,40.7003548 175.385221,40.5078001 174.643427,40.5078001 C173.900284,40.5078001 173.250708,40.7003548 172.69425,41.0850113 C172.137793,41.4701209 171.754975,41.9481098 171.548046,42.5198842 C171.339768,43.0921117 171.236304,43.6303589 171.236304,44.1364382 L171.236304,53.7030126 L166.946137,53.7030126 L166.946137,37.4069886 L171.236304,37.4069886 L171.236304,39.847677 C171.760373,38.9900154 172.469778,38.3140348 173.364969,37.8192823 C174.261059,37.3240767 175.24352,37.0767005 176.31325,37.0767005 Z M187.024049,53.7032391 L187.024049,37.406762 L191.314217,37.406762 L191.314217,53.7032391 L187.024049,53.7032391 Z M191.772608,32.8869351 C191.772608,33.5692586 191.527893,34.1355962 191.036213,34.5864009 C190.545432,35.0372056 189.917449,35.2623814 189.152714,35.2623814 C188.41092,35.2623814 187.794183,35.0372056 187.302953,34.5864009 C186.811723,34.1355962 186.565208,33.5692586 186.565208,32.8869351 C186.565208,32.1837703 186.811723,31.606106 187.302953,31.1553013 C187.794183,30.7049497 188.41092,30.4788677 189.152714,30.4788677 C189.917449,30.4788677 190.545432,30.7049497 191.036213,31.1553013 C191.527893,31.606106 191.772608,32.1837703 191.772608,32.8869351 Z M202.516246,37.0767005 C203.214405,37.0767005 203.945403,37.1596123 204.710138,37.3240767 C205.475324,37.4889942 206.189677,37.7807714 206.855447,38.198502 C207.522117,38.6162326 208.079024,39.1662596 208.52662,39.847677 C208.973315,40.5295474 209.198238,41.3323876 209.198238,42.2561974 L205.299435,42.2561974 C205.25625,41.6182748 204.977346,41.0963381 204.465423,40.6890281 C203.9517,40.2821712 203.312471,40.0787427 202.548635,40.0787427 C201.828884,40.0787427 201.237788,40.2436602 200.779396,40.5734952 C200.321905,40.9037833 200.092034,41.3323876 200.092034,41.8602142 C200.092034,42.3005983 200.325953,42.6906916 200.79694,43.0314003 C201.265229,43.3725621 202.329561,43.7191607 203.989937,44.07029 C206.107805,44.5106741 207.587344,45.1427068 208.427654,45.9672943 C209.268863,46.7918818 209.689018,47.7764031 209.689018,48.9199519 C209.689018,49.8433087 209.426309,50.6737861 208.90224,51.4104781 C208.378171,52.147623 207.593192,52.7628922 206.545054,53.2576447 C205.496916,53.7523972 204.218908,53.9997735 202.712379,53.9997735 C200.615653,53.9997735 198.902645,53.505021 197.569755,52.5155159 C196.237316,51.5260109 195.571546,50.2614924 195.571546,48.7215072 L199.69842,48.7215072 C199.720462,49.0300479 199.830674,49.359883 200.026806,49.7114653 C200.222489,50.0635008 200.561222,50.3548248 201.042106,50.5854375 C201.52254,50.8165032 202.068201,50.9320361 202.67954,50.9320361 C203.444276,50.9320361 204.082605,50.750355 204.595878,50.3874459 C205.10915,50.0245367 205.365112,49.5796219 205.365112,49.0517953 C205.365112,48.8755511 205.326875,48.7002129 205.250402,48.5239687 C205.174378,48.3481775 205.038075,48.1773701 204.841043,48.0124526 C204.644911,47.8475351 204.41639,47.7102549 204.153681,47.6001588 C203.892321,47.4900628 203.624213,47.3971834 203.351608,47.3197085 C203.078102,47.2426866 202.821241,47.1769914 202.581474,47.1217168 C202.340357,47.0673484 202.052007,47.0012002 201.713274,46.9237252 C201.374091,46.8467033 201.161764,46.7977718 201.074944,46.7755713 C197.624187,45.9618575 195.899932,44.3892513 195.899932,42.0582058 C195.899932,40.584822 196.516219,39.3859986 197.750593,38.4626418 C198.983617,37.538832 200.572468,37.0767005 202.516246,37.0767005 Z M30.1994155,19.9514223 C42.4423853,20.1929087 53.8720361,16.198643 63.32462,7.68817496 C59.495543,24.6656163 44.7123009,33.2091585 30.7329311,32.9332388 C17.417082,32.6704582 4.94514135,23.8201876 -1.42108547e-14,8.59340894 C8.65905811,16.1447277 19.005933,19.7303242 30.1994155,19.9514223 Z M30.1994155,40.2375891 C42.4423853,40.4790754 53.8720361,36.4848098 63.32462,27.9738886 C59.495543,44.9517831 44.7123009,53.4953253 30.7329311,53.2194056 C17.417082,52.956625 4.94514135,44.1063544 0,28.8795757 C8.65905811,36.4308944 19.005933,40.0164909 30.1994155,40.2375891 Z" id="path-1"></path>
    </defs>
    <g id="🧬-Logos/MH/No-baseline" stroke="none" stroke-width="1" fill="none" fill-rule="evenodd">
        <mask id="mask-2" fill="white">
            <use xlink:href="#path-1"></use>
        </mask>
        <use id="Mask" fill="#E2250C" xlink:href="#path-1"></use>
    </g>
</svg>